# xmcd
# 
# Track frame offsets:
#     183
#     27183
#     47283
#     82358
#     97283
#     122783
#     143445
#     171370
#     193145
#     211308
#     238420
#     261258
# 
# Disc length: 3787
# 
# Revision: 9
# Processed by: cddbd v1.5.2PL0 Copyright (c) Steve Scherf et al.
# Submitted via: fre:ac v1.0.17
# 
DISCID=b30ec90c
DTITLE=Antonello Venditti - Il Diario
DYEAR=1991
DGENRE=Pop
TTITLE0=Sotto Il Segno Dei Pesci
TTITLE1=Sara
TTITLE2=Modena
TTITLE3=Mezzanotte
TTITLE4=Buona Domenica
TTITLE5=Stai Con Me
TTITLE6=Lilly
TTITLE7=Roma Capoccia
TTITLE8=Attila E La Stella
TTITLE9=Campo De' Fiori
TTITLE10=Bomba O Non Bomba...
TTITLE11=Giulia
EXTD=Compilation\nDistribuzione PolyGram (C) 1991\n\nTesti e musiche di Antonello Venditti\nProdotto da Michelangelo Romano\n\ninserito il 16.03.1998 da Arnold Unterholzner - Email: arnold@ines.gn.apc.org YEAR: 1991
EXTT0=
EXTT1=
EXTT2=
EXTT3=
EXTT4=
EXTT5=
EXTT6=
EXTT7=
EXTT8=
EXTT9=
EXTT10=
EXTT11=
PLAYORDER=
